<svg width="33" height="32" viewBox="0 0 33 32" fill="none" xmlns="http://www.w3.org/2000/svg">
<g clip-path="url(#clip0_1128_14674)">
<path d="M32.8501 27.43H31.3301V30.48H32.8501V27.43Z" fill="#000001"/>
<path d="M31.33 24.38H29.8V27.43H31.33V24.38Z" fill="#000001"/>
<path d="M31.3301 30.48H2.37012V32H31.3301V30.48Z" fill="#000001"/>
<path d="M29.8002 21.33H28.2802V24.38H29.8002V21.33Z" fill="#000001"/>
<path d="M28.2801 18.29H26.7501V21.33H28.2801V18.29Z" fill="#000001"/>
<path d="M26.7501 15.24H25.2301V18.29H26.7501V15.24Z" fill="#000001"/>
<path d="M25.2301 12.19H23.7101V15.24H25.2301V12.19Z" fill="#000001"/>
<path d="M23.7101 9.14001H22.1801V12.19H23.7101V9.14001Z" fill="#000001"/>
<path d="M22.1802 6.09003H20.6602V9.14003H22.1802V6.09003Z" fill="#000001"/>
<path d="M20.6601 3.04999H19.1401V6.08999H20.6601V3.04999Z" fill="#000001"/>
<path d="M19.14 21.33H14.56V22.86H13.04V27.43H14.56V28.95H19.14V27.43H20.66V22.86H19.14V21.33Z" fill="#000001"/>
<path d="M19.14 9.14001H14.56V10.67H13.04V16.76H14.56V19.81H19.14V16.76H20.66V10.67H19.14V9.14001ZM19.14 15.24H17.61V12.19H16.09V10.67H17.61V12.19H19.14V15.24Z" fill="#000001"/>
<path d="M19.1401 1.52002H17.6101V3.05002H19.1401V1.52002Z" fill="#000001"/>
<path d="M17.6101 0H16.0901V1.52H17.6101V0Z" fill="#000001"/>
<path d="M16.0901 1.52002H14.5601V3.05002H16.0901V1.52002Z" fill="#000001"/>
<path d="M14.56 3.04999H13.04V6.08999H14.56V3.04999Z" fill="#000001"/>
<path d="M13.0401 6.09003H11.5201V9.14003H13.0401V6.09003Z" fill="#000001"/>
<path d="M11.5201 9.14001H9.99011V12.19H11.5201V9.14001Z" fill="#000001"/>
<path d="M9.99009 12.19H8.47009V15.24H9.99009V12.19Z" fill="#000001"/>
<path d="M8.47006 15.24H6.94006V18.29H8.47006V15.24Z" fill="#000001"/>
<path d="M6.94004 18.29H5.42004V21.33H6.94004V18.29Z" fill="#000001"/>
<path d="M5.42015 21.33H3.90015V24.38H5.42015V21.33Z" fill="#000001"/>
<path d="M3.90012 24.38H2.37012V27.43H3.90012V24.38Z" fill="#000001"/>
<path d="M2.3701 27.43H0.850098V30.48H2.3701V27.43Z" fill="#000001"/>
</g>
<defs>
<clipPath id="clip0_1128_14674">
<rect width="32" height="32" fill="white" transform="translate(0.850098)"/>
</clipPath>
</defs>
</svg>
